<?xml version="1.0" encoding="UTF-8" standalone="no"?>
<svg
   viewBox="0 0 640 640"
   version="1.1"
   id="svg1"
   sodipodi:docname="send-icon.svg"
   xml:space="preserve"
   inkscape:version="1.4.2 (f4327f4, 2025-05-13)"
   xmlns:inkscape="http://www.inkscape.org/namespaces/inkscape"
   xmlns:sodipodi="http://sodipodi.sourceforge.net/DTD/sodipodi-0.dtd"
   xmlns="http://www.w3.org/2000/svg"
   xmlns:svg="http://www.w3.org/2000/svg"><defs
     id="defs1" /><sodipodi:namedview
     id="namedview1"
     pagecolor="#ffffff"
     bordercolor="#999999"
     borderopacity="1"
     inkscape:showpageshadow="2"
     inkscape:pageopacity="0"
     inkscape:pagecheckerboard="0"
     inkscape:deskcolor="#d1d1d1"
     showguides="true"
     inkscape:zoom="0.89161746"
     inkscape:cx="335.90639"
     inkscape:cy="295.53033"
     inkscape:window-width="1920"
     inkscape:window-height="1009"
     inkscape:window-x="-8"
     inkscape:window-y="-8"
     inkscape:window-maximized="1"
     inkscape:current-layer="svg1"><sodipodi:guide
       position="319.60347,503.59356"
       orientation="1,0"
       id="guide1"
       inkscape:locked="false" /><sodipodi:guide
       position="141.0827,118.95911"
       orientation="0,-1"
       id="guide6"
       inkscape:locked="false" /><sodipodi:guide
       position="267.26146,310.8798"
       orientation="0,-1"
       id="guide7"
       inkscape:locked="false" /></sodipodi:namedview><!--!Font Awesome Free 7.3.1 by @fontawesome - https://fontawesome.com License - https://fontawesome.com/license/free Copyright 2026 Fonticons, Inc.--><path
     style="fill:none;stroke:#000000;stroke-width:8;stroke-linecap:butt;stroke-linejoin:miter;stroke-dasharray:none;stroke-opacity:1"
     d="m 538.07139,528.57497 c 31.79701,0 56.70384,-24.23711 56.70384,-56.70384 V 324.5601 177.24907 c 0,-32.46673 -24.90683,-56.70384 -56.70384,-56.70384 l -219.4694,-0.79306 -219.4694,0.79306 c -31.79701,0 -56.703842,24.23711 -56.703842,56.70384 V 324.5601 471.87113 c 0,32.46673 24.906832,56.70384 56.703842,56.70384 l 219.4694,0.79306 z"
     id="path15"
     sodipodi:nodetypes="ccccccccccccc" /><path
     style="fill:none;stroke:#000000;stroke-width:8;stroke-linecap:butt;stroke-linejoin:miter;stroke-dasharray:none;stroke-opacity:1"
     d="m 42.428748,177.24907 c 0,18.51959 13.87533,31.68733 28.790136,42.57615 L 266.93062,365.06688 c 18.2609,14.75199 33.5754,21.48133 51.67137,21.87036 18.09597,-0.38903 33.41047,-7.11837 51.67137,-21.87036 L 565.98509,219.82522 c 14.91481,-10.88882 28.79014,-24.05656 28.79014,-42.57615"
     id="path16"
     sodipodi:nodetypes="ccccccc" /></svg>
